# xmcd
#
# Track frame offsets: 
#        150
#        15563
#        35016
#        54336
#        74965
#        93950
#        109458
#        126405
#        154089
#        171424
#        184127
#
# Disc length: 2957 seconds
#
# Revision: 0
# Processed by: cddbd v1.5.1PL0 Copyright (c) Steve Scherf et al.
# Submitted via: ExactAudioCopy v0.90b4
#
DISCID=a00b8b0b
DTITLE=Jarabe de palo - Un metro cuadrado
DYEAR=2004
DGENRE=Pop
TTITLE0=1 m² (solo o bien acompañado)
TTITLE1=Romeo y Julieta (no eran de este planeta)
TTITLE2=Dicen
TTITLE3=Mi diario personal
TTITLE4=Que bueno que bueno
TTITLE5=El café de la morena
TTITLE6=Menos que un amor, más que un amigo
TTITLE7=Escriban más canciones
TTITLE8=Entre las barcas
TTITLE9=Sale a escena
TTITLE10=Cry (if you don't mind)
EXTD=
EXTT0=
EXTT1=
EXTT2=
EXTT3=
EXTT4=
EXTT5=
EXTT6=
EXTT7=
EXTT8=
EXTT9=
EXTT10=
PLAYORDER=
